<svg xmlns="http://www.w3.org/2000/svg" xmlns:xlink="http://www.w3.org/1999/xlink" viewBox="0,0,256,256" width="512px" height="512px" fill-rule="nonzero"><g transform=""><g fill="#faa55c" fill-rule="nonzero" stroke="none" stroke-width="1" stroke-linecap="butt" stroke-linejoin="miter" stroke-miterlimit="10" stroke-dasharray="" stroke-dashoffset="0" font-family="none" font-weight="none" font-size="none" text-anchor="none" style="mix-blend-mode: normal"><path d="M64,256c-35.34622,0 -64,-28.65378 -64,-64v-128c0,-35.34622 28.65378,-64 64,-64h128c35.34622,0 64,28.65378 64,64v128c0,35.34622 -28.65378,64 -64,64z" id="shape"></path></g><g fill-opacity="0.72157" fill="#cc2f20" fill-rule="nonzero" stroke="none" stroke-width="1" stroke-linecap="butt" stroke-linejoin="miter" stroke-miterlimit="10" stroke-dasharray="" stroke-dashoffset="0" font-family="none" font-weight="none" font-size="none" text-anchor="none" style="mix-blend-mode: normal"><g transform="scale(16,16)"><path d="M4.5,2c-0.82422,0 -1.5,0.67578 -1.5,1.5v10.98438l5,-3.66406l5,3.66406v-10.98437c0,-0.82422 -0.67578,-1.5 -1.5,-1.5zM4.5,3h7c0.28125,0 0.5,0.21875 0.5,0.5v9.01563l-4,-2.9375l-4,2.9375v-9.01562c0,-0.28125 0.21875,-0.5 0.5,-0.5z"></path></g></g></g></svg>